Full Frontal (2002)

A day in the life of a group of men and women in Hollywood, in the hours leading up to a friend's birthday party. 
 
Format                           : AVI
Format/Info                      : Audio Video Interleave
File size                        : 700 MiB
Duration                         : 1h 40mn
Overall bit rate                 : 970 Kbps
Writing application              : VirtualDubMod 1.5.4.1 (build 2178/release)
Writing library                  : VirtualDubMod build 2178/release
Language                         : English
Subtitles                        : None
Genre: Comedy

Video
ID                               : 0
Format                           : MPEG-4 Visual
Format profile                   : Advanced Simple@L5
Format settings, BVOP            : Yes
Format settings, QPel            : No
Format settings, GMC             : No warppoints
Format settings, Matrix          : Custom
Codec ID                         : XVID
Codec ID/Hint                    : XviD
Duration                         : 1h 40mn
Bit rate                         : 855 Kbps
Width                            : 432 pixels
Height                           : 240 pixels
Display aspect ratio             : 16:9
Frame rate                       : 23.976 fps
Color space                      : YUV
Chroma subsampling               : 4:2:0
Bit depth                        : 8 bits
Scan type                        : Progressive
Bits/(Pixel*Frame)               : 0.344
Stream size                      : 617 MiB (88%)
Writing library                  : XviD 1.2.1 (UTC 2008-12-04)

Audio
ID                               : 1
Format                           : MPEG Audio
Format version                   : Version 1
Format profile                   : Layer 3
Mode                             : Joint stereo
Mode extension                   : MS Stereo
Codec ID                         : 55
Codec ID/Hint                    : MP3
Duration                         : 1h 40mn
Bit rate mode                    : Variable
Bit rate                         : 103 Kbps
Nominal bit rate                 : 128 Kbps
Channel(s)                       : 2 channels
Sampling rate                    : 48.0 KHz
Stream size                      : 74.3 MiB (11%)
Alignment                        : Aligned on interleaves
Interleave, duration             : 24 ms (0.58 video frame)
Interleave, preload duration     : 178 ms
Writing library                  : LAME3.98r
Encoding settings                : -m j -V 4 -q 2 -lowpass 17 --abr 128
 
http://leetleech.org/images/67541341588713629718.png 
http://leetleech.org/images/67837401592533788108.png 
http://leetleech.org/images/13532814653808895548.png 
http://leetleech.org/images/72087538964393775794.png 
http://leetleech.org/images/38603242588653616298.png 
http://leetleech.org/images/46787140904578602307.png 
http://leetleech.org/images/41593915583287641352.png
 
http://www.youtube.com/watch?v=fiHGKVFoXio
 
http://www.imdb.com/title/tt0290212/
 
http://leetleech.org/images/97913465899887526311.png